<svg xmlns="http://www.w3.org/2000/svg" xmlns:xlink="http://www.w3.org/1999/xlink" width="500" zoomAndPan="magnify" viewBox="0 0 375 374.999991" height="500" preserveAspectRatio="xMidYMid meet" version="1.0"><defs><clipPath id="d61294d7b9"><path d="M 86 29.402344 L 289 29.402344 L 289 272 L 86 272 Z M 86 29.402344 " clip-rule="nonzero"/></clipPath><clipPath id="be4d874dd4"><path d="M 2.953125 86.269531 L 371.753906 86.269531 L 371.753906 345.902344 L 2.953125 345.902344 Z M 2.953125 86.269531 " clip-rule="nonzero"/></clipPath></defs><g clip-path="url(#d61294d7b9)"><path fill="#caa550" d="M 187.351562 233.675781 L 117.460938 150.242188 L 187.351562 66.804688 L 257.238281 150.242188 Z M 272.90625 131.539062 L 203.019531 48.105469 L 187.351562 29.402344 L 171.679688 48.105469 L 101.800781 131.539062 L 86.128906 150.242188 L 101.800781 168.945312 L 171.679688 252.378906 L 187.351562 271.082031 L 203.019531 252.378906 L 272.90625 168.945312 L 288.578125 150.242188 L 272.90625 131.539062 " fill-opacity="1" fill-rule="nonzero"/></g><g clip-path="url(#be4d874dd4)"><path fill="#caa550" d="M 356.414062 86.285156 C 347.941406 86.285156 341.070312 93.164062 341.070312 101.652344 C 341.070312 107.542969 344.386719 112.65625 349.242188 115.234375 L 335.582031 131.539062 L 332.40625 135.328125 L 319.914062 150.242188 L 304.242188 168.945312 L 288.582031 187.644531 L 218.691406 271.082031 L 203.023438 289.785156 L 187.355469 308.496094 L 171.683594 289.792969 L 156.015625 271.082031 L 86.132812 187.65625 L 70.464844 168.945312 L 54.792969 150.242188 L 42.300781 135.328125 L 39.125 131.539062 L 25.464844 115.234375 C 30.324219 112.65625 33.636719 107.542969 33.636719 101.652344 C 33.636719 93.164062 26.769531 86.285156 18.296875 86.285156 C 9.824219 86.285156 2.953125 93.164062 2.953125 101.652344 C 2.953125 110.140625 9.824219 117.019531 18.296875 117.019531 L 18.296875 256.304688 L 23.464844 262.472656 L 42.300781 284.957031 L 93.34375 345.902344 L 109.011719 327.195312 L 42.300781 247.542969 L 42.300781 172.734375 L 54.792969 187.644531 L 70.464844 206.359375 L 140.355469 289.785156 L 156.023438 308.496094 L 171.683594 327.195312 L 187.355469 345.902344 L 218.691406 308.488281 L 234.355469 289.785156 L 304.242188 206.347656 L 319.914062 187.644531 L 332.40625 172.734375 L 332.40625 247.554688 L 265.695312 327.195312 L 281.363281 345.902344 L 332.40625 284.964844 L 351.253906 262.464844 L 356.414062 256.304688 L 356.414062 117.019531 C 364.882812 117.019531 371.753906 110.140625 371.753906 101.652344 C 371.753906 93.164062 364.882812 86.285156 356.414062 86.285156 " fill-opacity="1" fill-rule="nonzero"/></g></svg>