<svg xmlns="http://www.w3.org/2000/svg" xmlns:xlink="http://www.w3.org/1999/xlink" width="500" zoomAndPan="magnify" viewBox="0 0 375 374.999991" height="500" preserveAspectRatio="xMidYMid meet" version="1.0"><defs><g/><clipPath id="5278d003f2"><path d="M 135 47.5 L 245 47.5 L 245 178 L 135 178 Z M 135 47.5 " clip-rule="nonzero"/></clipPath><clipPath id="fa7227bb9b"><path d="M 90.265625 78.089844 L 288.914062 78.089844 L 288.914062 217.75 L 90.265625 217.75 Z M 90.265625 78.089844 " clip-rule="nonzero"/></clipPath></defs><g clip-path="url(#5278d003f2)"><path fill="#caa550" d="M 189.585938 157.382812 L 151.945312 112.5 L 189.585938 67.621094 L 227.230469 112.5 Z M 235.671875 102.441406 L 198.027344 57.558594 L 189.585938 47.5 L 181.148438 57.558594 L 143.507812 102.441406 L 135.066406 112.5 L 143.507812 122.5625 L 181.148438 167.441406 L 189.585938 177.503906 L 198.027344 167.441406 L 235.671875 122.5625 L 244.109375 112.5 L 235.671875 102.441406 " fill-opacity="1" fill-rule="nonzero"/></g><g clip-path="url(#fa7227bb9b)"><path fill="#caa550" d="M 280.648438 78.097656 C 276.085938 78.097656 272.386719 81.796875 272.386719 86.363281 C 272.386719 89.535156 274.171875 92.28125 276.789062 93.671875 L 269.429688 102.441406 L 267.71875 104.480469 L 260.988281 112.5 L 252.550781 122.5625 L 244.113281 132.621094 L 206.46875 177.503906 L 198.03125 187.5625 L 189.589844 197.628906 L 181.148438 187.566406 L 172.710938 177.503906 L 135.070312 132.625 L 126.628906 122.5625 L 118.191406 112.5 L 111.460938 104.480469 L 109.75 102.441406 L 102.390625 93.671875 C 105.007812 92.28125 106.792969 89.535156 106.792969 86.363281 C 106.792969 81.796875 103.09375 78.097656 98.53125 78.097656 C 93.96875 78.097656 90.265625 81.796875 90.265625 86.363281 C 90.265625 90.929688 93.96875 94.632812 98.53125 94.632812 L 98.53125 169.554688 L 101.316406 172.875 L 111.460938 184.96875 L 138.953125 217.75 L 147.394531 207.6875 L 111.460938 164.84375 L 111.460938 124.601562 L 118.191406 132.621094 L 126.628906 142.6875 L 164.273438 187.5625 L 172.714844 197.628906 L 181.148438 207.6875 L 189.589844 217.75 L 198.03125 207.6875 L 214.90625 187.5625 L 252.550781 142.683594 L 260.988281 132.621094 L 267.71875 124.601562 L 267.71875 164.847656 L 231.785156 207.6875 L 240.226562 217.75 L 267.71875 184.972656 L 277.871094 172.867188 L 280.648438 169.554688 L 280.648438 94.632812 C 285.210938 94.632812 288.910156 90.929688 288.910156 86.363281 C 288.910156 81.796875 285.210938 78.097656 280.648438 78.097656 " fill-opacity="1" fill-rule="nonzero"/></g><g fill="#fafafa" fill-opacity="1"><g transform="translate(15.327655, 309.809886)"><g><path d="M 21.21875 0 L 21.21875 -48.234375 L 2.65625 -48.234375 L 2.65625 -54.8125 L 46.59375 -54.8125 L 46.59375 -48.234375 L 28.109375 -48.234375 L 28.109375 0 Z M 21.21875 0 "/></g></g></g><g fill="#fafafa" fill-opacity="1"><g transform="translate(85.479566, 309.809886)"><g><path d="M 7.984375 0 L 7.984375 -54.8125 L 14.40625 -54.8125 L 35.9375 -22.3125 L 57.3125 -54.8125 L 63.734375 -54.8125 L 63.734375 0 L 56.84375 0 L 56.84375 -41.890625 L 38.671875 -14.5625 L 33.046875 -14.5625 L 14.875 -41.96875 L 14.875 0 Z M 7.984375 0 "/></g></g></g><g fill="#fafafa" fill-opacity="1"><g transform="translate(178.02291, 309.809886)"><g><path d="M 7.984375 0 L 7.984375 -54.8125 L 14.875 -54.8125 L 14.875 -31.234375 L 22.703125 -31.234375 C 26.410156 -31.234375 29.203125 -31.898438 31.078125 -33.234375 C 32.960938 -34.566406 34.453125 -36.722656 35.546875 -39.703125 L 41.1875 -54.8125 L 48.46875 -54.8125 L 41.734375 -36.953125 C 40.953125 -34.867188 40 -33.054688 38.875 -31.515625 C 37.75 -29.972656 36.40625 -28.679688 34.84375 -27.640625 L 50.578125 0 L 42.59375 0 L 28.421875 -25.140625 C 26.703125 -24.816406 24.796875 -24.65625 22.703125 -24.65625 L 14.875 -24.65625 L 14.875 0 Z M 7.984375 0 "/></g></g></g><g fill="#fafafa" fill-opacity="1"><g transform="translate(252.402568, 309.809886)"><g><path d="M 10.40625 0 L 31 -48.390625 L 3.28125 -48.390625 L 3.28125 -54.8125 L 39.0625 -54.8125 L 39.0625 -49.875 L 17.765625 0 Z M 10.40625 0 "/></g></g></g><g fill="#fafafa" fill-opacity="1"><g transform="translate(315.743107, 309.809886)"><g><path d="M 2.8125 -11.59375 L 2.8125 -16.828125 L 22.625 -54.8125 L 30.453125 -54.8125 L 11.203125 -18.015625 L 30.84375 -18.015625 L 31.3125 -35.390625 L 37.65625 -35.390625 L 37.65625 -18.171875 L 45.015625 -18.171875 L 45.015625 -11.59375 L 37.65625 -11.59375 L 37.65625 0 L 30.765625 0 L 30.765625 -11.59375 Z M 2.8125 -11.59375 "/></g></g></g></svg>