<svg xmlns="http://www.w3.org/2000/svg" xmlns:xlink="http://www.w3.org/1999/xlink" width="500" zoomAndPan="magnify" viewBox="0 0 375 374.999991" height="500" preserveAspectRatio="xMidYMid meet" version="1.0"><defs><g/><clipPath id="a1c552917e"><path d="M 149 89.148438 L 226 89.148438 L 226 180 L 149 180 Z M 149 89.148438 " clip-rule="nonzero"/></clipPath><clipPath id="64409436a5"><path d="M 118.546875 110.4375 L 256.464844 110.4375 L 256.464844 207.648438 L 118.546875 207.648438 Z M 118.546875 110.4375 " clip-rule="nonzero"/></clipPath></defs><g clip-path="url(#a1c552917e)"><path fill="#caa550" d="M 187.503906 165.628906 L 161.367188 134.390625 L 187.503906 103.152344 L 213.640625 134.390625 Z M 219.5 127.386719 L 193.363281 96.148438 L 187.503906 89.148438 L 181.644531 96.148438 L 155.511719 127.386719 L 149.652344 134.390625 L 155.511719 141.394531 L 181.644531 172.632812 L 187.503906 179.632812 L 193.363281 172.632812 L 219.5 141.394531 L 225.359375 134.390625 L 219.5 127.386719 " fill-opacity="1" fill-rule="nonzero"/></g><g clip-path="url(#64409436a5)"><path fill="#caa550" d="M 250.730469 110.445312 C 247.558594 110.445312 244.992188 113.019531 244.992188 116.199219 C 244.992188 118.402344 246.230469 120.316406 248.046875 121.285156 L 242.9375 127.386719 L 241.75 128.808594 L 237.078125 134.390625 L 231.21875 141.394531 L 225.363281 148.394531 L 199.226562 179.632812 L 187.507812 193.640625 L 181.648438 186.640625 L 175.785156 179.632812 L 149.652344 148.398438 L 137.933594 134.390625 L 133.261719 128.808594 L 132.074219 127.386719 L 126.964844 121.285156 C 128.78125 120.316406 130.023438 118.402344 130.023438 116.199219 C 130.023438 113.019531 127.453125 110.445312 124.285156 110.445312 C 121.117188 110.445312 118.546875 113.019531 118.546875 116.199219 C 118.546875 119.375 121.117188 121.953125 124.285156 121.953125 L 124.285156 174.101562 L 126.21875 176.410156 L 133.261719 184.828125 L 152.351562 207.648438 L 158.210938 200.644531 L 133.261719 170.820312 L 133.261719 142.8125 L 137.933594 148.394531 L 143.792969 155.402344 L 169.929688 186.636719 L 187.507812 207.648438 L 193.367188 200.644531 L 199.226562 193.636719 L 205.082031 186.636719 L 231.21875 155.398438 L 237.078125 148.394531 L 241.75 142.8125 L 241.75 170.824219 L 216.804688 200.644531 L 222.664062 207.648438 L 241.75 184.832031 L 248.800781 176.40625 L 250.730469 174.101562 L 250.730469 121.953125 C 253.898438 121.953125 256.464844 119.375 256.464844 116.199219 C 256.464844 113.019531 253.898438 110.445312 250.730469 110.445312 " fill-opacity="1" fill-rule="nonzero"/></g><g fill="#fafafa" fill-opacity="1"><g transform="translate(66.434981, 271.539237)"><g><path d="M 14.75 0 L 14.75 -33.53125 L 1.84375 -33.53125 L 1.84375 -38.109375 L 32.390625 -38.109375 L 32.390625 -33.53125 L 19.546875 -33.53125 L 19.546875 0 Z M 14.75 0 "/></g></g></g><g fill="#fafafa" fill-opacity="1"><g transform="translate(115.213807, 271.539237)"><g><path d="M 5.546875 0 L 5.546875 -38.109375 L 10.015625 -38.109375 L 24.984375 -15.515625 L 39.84375 -38.109375 L 44.3125 -38.109375 L 44.3125 0 L 39.515625 0 L 39.515625 -29.125 L 26.890625 -10.125 L 22.96875 -10.125 L 10.34375 -29.171875 L 10.34375 0 Z M 5.546875 0 "/></g></g></g><g fill="#fafafa" fill-opacity="1"><g transform="translate(179.562099, 271.539237)"><g><path d="M 5.546875 0 L 5.546875 -38.109375 L 10.34375 -38.109375 L 10.34375 -21.71875 L 15.78125 -21.71875 C 18.363281 -21.71875 20.304688 -22.179688 21.609375 -23.109375 C 22.921875 -24.035156 23.957031 -25.53125 24.71875 -27.59375 L 28.640625 -38.109375 L 33.703125 -38.109375 L 29.015625 -25.6875 C 28.472656 -24.238281 27.8125 -22.976562 27.03125 -21.90625 C 26.25 -20.84375 25.3125 -19.945312 24.21875 -19.21875 L 35.171875 0 L 29.609375 0 L 19.765625 -17.46875 C 18.566406 -17.25 17.238281 -17.140625 15.78125 -17.140625 L 10.34375 -17.140625 L 10.34375 0 Z M 5.546875 0 "/></g></g></g><g fill="#fafafa" fill-opacity="1"><g transform="translate(231.28061, 271.539237)"><g><path d="M 7.234375 0 L 21.5625 -33.640625 L 2.28125 -33.640625 L 2.28125 -38.109375 L 27.171875 -38.109375 L 27.171875 -34.671875 L 12.359375 0 Z M 7.234375 0 "/></g></g></g><g fill="#fafafa" fill-opacity="1"><g transform="translate(275.323275, 271.539237)"><g><path d="M 1.953125 -8.0625 L 1.953125 -11.703125 L 15.734375 -38.109375 L 21.171875 -38.109375 L 7.78125 -12.515625 L 21.453125 -12.515625 L 21.78125 -24.609375 L 26.1875 -24.609375 L 26.1875 -12.625 L 31.296875 -12.625 L 31.296875 -8.0625 L 26.1875 -8.0625 L 26.1875 0 L 21.390625 0 L 21.390625 -8.0625 Z M 1.953125 -8.0625 "/></g></g></g></svg>